<?xml version="1.0" standalone="no"?>
<!DOCTYPE svg PUBLIC "-//W3C//DTD SVG 20010904//EN"
 "http://www.w3.org/TR/2001/REC-SVG-20010904/DTD/svg10.dtd">
<svg version="1.0" xmlns="http://www.w3.org/2000/svg"
 width="966.000000pt" height="966.000000pt" viewBox="0 0 966.000000 966.000000"
 preserveAspectRatio="xMidYMid meet">
<metadata>
Created by potrace 1.11, written by Peter Selinger 2001-2013
</metadata>
<g transform="translate(0.000000,966.000000) scale(0.100000,-0.100000)"
fill="#000000" stroke="none">
<path d="M5125 8554 c-7 -11 -30 -17 -80 -20 -86 -5 -150 -10 -235 -20 -36 -4
-78 -8 -95 -9 -16 -2 -30 -4 -30 -5 0 -1 -13 -3 -30 -4 -27 -3 -70 -9 -150
-23 -16 -3 -43 -6 -60 -8 -16 -2 -31 -5 -32 -6 -2 -1 -6 -2 -10 -3 -17 -4 -89
-18 -113 -22 -14 -3 -43 -10 -65 -16 -41 -10 -59 -14 -109 -24 -16 -2 -32 -7
-36 -9 -3 -2 -17 -6 -31 -9 -29 -5 -272 -71 -297 -81 -7 -2 -14 -5 -17 -5 -3
-1 -44 -15 -92 -31 -49 -17 -96 -33 -107 -35 -10 -2 -23 -7 -30 -12 -6 -5 -24
-13 -41 -17 -37 -10 -34 -9 -70 -24 -16 -7 -31 -12 -33 -12 -1 1 -16 -6 -32
-14 -17 -9 -30 -13 -30 -10 0 3 -11 -2 -24 -11 -14 -8 -27 -15 -31 -15 -3 1
-22 -6 -43 -15 -20 -9 -42 -18 -49 -20 -7 -1 -46 -18 -87 -38 -41 -20 -77 -36
-80 -36 -12 0 -141 -65 -144 -72 -2 -5 -11 -8 -20 -8 -9 0 -26 -7 -36 -15 -10
-8 -23 -12 -27 -9 -5 3 -9 1 -9 -4 0 -5 -11 -14 -24 -20 -20 -9 -27 -8 -38 5
-7 9 -12 18 -10 20 1 1 2 4 1 6 0 1 -2 11 -4 21 -10 51 -17 65 -36 71 -29 9
-34 0 -19 -35 15 -36 15 -101 1 -128 -6 -11 -24 -25 -40 -32 -29 -11 -32 -10
-58 20 -15 18 -32 39 -36 46 -10 17 -41 18 -54 2 -6 -7 -16 -50 -23 -95 -10
-65 -16 -84 -31 -88 -23 -8 -348 -224 -379 -253 -13 -12 -27 -22 -30 -22 -4 0
-18 -9 -31 -21 -44 -37 -64 -54 -113 -94 -149 -121 -428 -401 -527 -530 -13
-16 -29 -36 -36 -43 -8 -8 -25 -29 -40 -49 l-27 -35 -73 4 c-59 4 -78 9 -98
28 -32 30 -31 23 1 -43 42 -84 47 -160 14 -207 -23 -32 -44 -38 -57 -16 -8 13
-82 100 -132 155 -14 15 -42 46 -62 68 -46 52 -73 67 -87 50 -22 -27 -14 -58
43 -152 13 -22 27 -47 31 -55 8 -16 94 -131 105 -140 3 -3 14 -19 23 -37 24
-47 3 -49 -28 -2 -22 33 -30 38 -41 29 -23 -19 -39 -165 -24 -207 5 -13 4 -25
-1 -28 -6 -4 -10 -13 -10 -22 0 -8 -9 -28 -21 -44 -11 -16 -17 -29 -12 -29 4
0 3 -4 -3 -8 -11 -6 -57 -91 -57 -102 1 -8 -8 -33 -25 -74 -15 -35 -49 -59
-110 -78 -17 -5 -62 -47 -62 -59 0 -5 18 -20 41 -35 36 -22 40 -29 34 -52 -9
-37 -28 -50 -73 -47 -34 2 -40 -1 -51 -26 -13 -29 -22 -34 -96 -44 -22 -3 -56
-8 -76 -11 -109 -16 -171 -47 -120 -61 12 -3 21 -9 21 -13 0 -4 16 -8 35 -8
48 0 135 -22 135 -34 0 -5 4 -7 8 -4 12 7 80 -41 86 -61 6 -21 4 -38 -11 -73
-17 -40 -93 -287 -108 -352 -7 -28 -51 -64 -120 -97 -31 -15 -92 -77 -100
-102 -5 -16 -2 -26 11 -36 21 -15 38 -17 30 -4 -4 5 16 17 44 26 27 9 50 20
50 24 0 4 9 7 21 8 16 2 18 -1 10 -11 -6 -7 -9 -15 -6 -18 3 -2 -8 -63 -24
-134 -16 -71 -35 -158 -41 -194 -6 -36 -16 -70 -20 -75 -8 -9 -15 -59 -25
-177 -5 -52 -15 -130 -20 -148 -4 -17 -16 -134 -20 -200 -1 -25 -6 -97 -9
-160 -4 -63 -9 -135 -12 -160 -3 -25 -6 -49 -5 -55 0 -5 3 -44 6 -85 3 -41 12
-122 21 -180 8 -58 17 -122 20 -143 7 -46 12 -72 14 -72 2 0 8 -27 14 -65 3
-14 8 -41 11 -60 4 -19 18 -80 31 -135 14 -55 30 -118 35 -140 5 -22 12 -47
16 -55 4 -8 7 -24 8 -35 1 -11 7 -32 13 -46 6 -15 14 -43 17 -63 4 -20 11 -39
16 -42 5 -3 9 -13 9 -22 0 -14 41 -153 66 -222 3 -8 5 -16 5 -18 -1 -1 6 -19
15 -40 8 -20 17 -44 19 -52 2 -8 15 -46 30 -85 15 -38 31 -83 37 -100 6 -16
14 -34 18 -40 3 -5 13 -30 20 -55 7 -25 19 -52 25 -60 7 -8 10 -21 8 -27 -3
-7 0 -13 6 -13 6 0 11 -7 11 -15 0 -8 4 -23 10 -33 5 -9 37 -79 70 -156 58
-133 83 -169 130 -188 10 -3 26 -1 38 5 79 45 137 82 140 89 2 4 8 8 14 8 5 0
48 22 95 50 47 27 87 50 88 50 2 0 28 14 57 31 72 43 165 96 233 133 11 6 22
13 25 16 3 3 19 12 35 21 66 34 120 64 125 70 3 3 23 14 45 24 22 10 65 35 95
54 30 19 57 36 60 36 15 4 73 35 135 71 171 99 411 233 419 232 5 0 12 4 15 9
3 4 26 19 51 32 25 14 48 29 52 35 4 6 8 7 8 2 0 -5 6 -4 13 2 13 10 60 38
142 82 52 28 246 137 303 171 18 11 65 36 105 57 87 46 120 65 127 72 3 3 21
13 40 22 19 10 53 28 75 41 22 13 69 40 105 59 36 20 90 50 120 68 30 18 64
36 75 41 11 5 37 21 59 35 21 14 35 20 31 12 -3 -7 1 -4 10 7 9 11 20 21 25
21 6 1 14 2 19 3 5 0 16 7 23 14 7 6 42 27 78 46 36 19 68 38 71 43 3 5 13 10
21 12 9 1 22 6 29 12 8 5 32 19 54 31 22 11 56 30 75 42 19 11 51 29 70 38 19
10 37 21 38 26 2 4 10 7 17 7 8 0 20 6 27 13 7 7 42 27 78 46 36 18 83 43 105
57 22 13 61 35 88 49 26 14 122 68 213 120 91 52 168 95 169 95 2 0 50 27 107
60 56 33 109 60 115 60 7 0 13 4 13 9 0 5 8 11 18 14 9 4 35 18 57 31 22 14
50 30 63 36 13 5 61 33 108 60 47 28 87 50 90 50 2 0 21 11 42 23 20 13 69 41
107 62 39 21 107 60 151 86 45 27 86 49 92 49 5 0 15 7 22 15 7 8 16 13 20 10
4 -3 13 2 20 10 7 8 19 15 27 15 9 0 13 6 10 14 -4 9 0 12 12 9 10 -2 24 1 32
9 8 7 32 22 54 33 22 11 42 22 45 25 3 3 25 15 50 28 93 46 110 57 105 69 -2
7 2 10 10 7 8 -4 37 8 65 25 28 17 52 31 54 31 1 0 69 38 150 85 81 47 149 85
151 85 3 0 48 26 102 58 122 73 230 133 264 148 15 7 30 17 33 23 4 6 12 9 17
6 5 -4 9 -2 9 4 0 5 9 13 21 16 11 4 55 28 97 54 42 26 104 63 137 81 111 61
150 84 153 92 2 4 10 8 19 8 8 0 30 12 49 26 19 15 34 22 34 18 0 -5 4 -4 8 2
4 6 26 21 49 33 23 11 45 25 48 31 4 6 10 8 15 5 5 -3 12 0 15 5 4 6 17 16 28
21 12 5 36 18 52 29 17 10 46 27 65 37 19 9 37 20 40 23 3 4 41 26 84 51 43
24 93 52 110 62 17 10 40 23 51 30 11 6 23 10 28 9 4 -1 7 1 7 6 0 4 26 21 57
37 31 17 65 38 75 48 10 9 22 17 27 17 9 0 418 242 438 260 7 5 17 10 23 10 5
0 10 4 10 10 0 5 3 9 8 8 4 -1 32 13 62 33 30 19 71 44 90 55 19 10 39 25 43
32 4 6 12 12 17 12 11 0 134 81 138 92 2 4 8 8 13 8 11 0 16 4 84 64 l50 44
-3 81 c-4 102 6 124 54 116 49 -7 85 20 117 92 46 103 76 236 55 249 -5 3 -29
-6 -53 -21 -51 -29 -99 -39 -126 -24 -42 22 -189 184 -189 207 0 6 -9 14 -20
17 -11 3 -20 10 -20 15 0 14 -54 28 -77 19 -26 -10 -40 4 -48 49 l-5 31 35
-20 c38 -23 95 -19 95 7 0 11 -5 12 -17 6 -27 -14 -66 -5 -89 22 -21 23 -21
27 -8 108 19 116 18 126 -16 160 -36 35 -36 36 -8 65 12 13 18 26 14 30 -4 5
-20 -7 -35 -25 -31 -36 -73 -40 -80 -6 -4 23 -20 44 -33 44 -5 0 -4 -9 2 -19
17 -33 13 -42 -17 -30 -25 10 -64 11 -158 6 -28 -2 -30 1 -36 42 -4 29 -14 51
-28 63 -13 10 -22 18 -20 19 2 0 19 2 37 4 19 2 40 6 49 9 17 7 8 27 -10 21
-7 -2 -28 -6 -47 -9 -19 -3 -53 -10 -75 -15 -22 -6 -43 -11 -47 -11 -14 0 -35
56 -52 138 -23 118 -37 142 -84 143 -73 1 -147 9 -182 20 -38 13 -72 38 -65
49 2 4 -7 13 -20 20 -25 13 -33 30 -15 30 14 0 31 36 24 53 -9 25 -57 39 -115
32 -127 -14 -184 -22 -184 -25 0 -1 -8 -3 -17 -5 -13 -2 -23 9 -37 40 -23 52
-48 67 -105 64 -39 -3 -47 1 -84 39 -23 23 -53 47 -67 52 -17 6 -34 27 -49 60
-17 37 -37 60 -78 87 -30 21 -67 48 -83 61 l-28 22 22 45 c27 54 25 91 -4 87
-11 -2 -31 -5 -45 -7 -14 -2 -29 -4 -35 -6 -5 -2 -44 7 -85 20 -73 23 -212 33
-265 18 -71 -19 -72 -19 -87 5 -25 38 -77 88 -91 88 -7 0 -18 -5 -25 -12 -14
-14 -42 -20 -42 -9 0 4 -6 15 -13 25 -13 17 -16 15 -45 -33 -34 -55 -53 -62
-109 -40 -15 6 -35 12 -43 15 -8 2 -49 12 -90 23 -41 11 -86 22 -100 25 -14 3
-36 8 -50 11 -14 3 -56 11 -95 17 -66 11 -101 23 -73 26 34 3 52 10 56 22 3 9
-2 11 -19 6 -13 -3 -36 -9 -51 -12 -16 -4 -28 -11 -28 -15 0 -5 -12 -7 -27 -4
-16 3 -44 8 -63 11 -19 3 -42 8 -50 11 -8 3 -46 7 -85 9 -182 7 -341 20 -355
29 -6 3 -10 2 -10 -3 0 -9 -52 -8 -124 2 -23 3 -45 1 -53 -5 -10 -9 -13 -8
-13 3 0 8 -12 15 -32 16 -28 1 -30 0 -15 -9 18 -10 17 -12 -5 -27 -12 -9 -26
-16 -30 -14 -5 1 -8 -2 -8 -8 0 -5 -7 -10 -15 -10 -17 0 -20 23 -5 51 13 23
-1 26 -15 3z m-2916 -1327 c-2 -1 -13 -9 -24 -17 -19 -14 -19 -14 -6 3 7 9 18
17 24 17 6 0 8 -1 6 -3z m6771 -161 c0 -2 -8 -10 -17 -17 -16 -13 -17 -12 -4
4 13 16 21 21 21 13z m-8128 -796 c-5 -32 -22 -42 -22 -12 0 14 17 42 25 42 1
0 0 -13 -3 -30z m8518 -136 c0 -8 -5 -12 -10 -9 -6 4 -8 11 -5 16 9 14 15 11
15 -7z m-20 -127 c0 -2 -10 -12 -22 -23 l-23 -19 19 23 c18 21 26 27 26 19z
m-5450 -167 c0 -5 -5 -10 -11 -10 -5 0 -7 5 -4 10 3 6 8 10 11 10 2 0 4 -4 4
-10z m-770 -154 c0 -3 -4 -8 -10 -11 -5 -3 -10 -1 -10 4 0 6 5 11 10 11 6 0
10 -2 10 -4z m-55 -57 c-17 -64 -29 -77 -22 -24 6 47 16 75 27 75 5 0 2 -23
-5 -51z m155 2 c0 -5 -7 -12 -16 -15 -14 -5 -15 -4 -4 9 14 17 20 19 20 6z
m-399 -28 c-12 -20 -14 -14 -5 12 4 9 9 14 11 11 3 -2 0 -13 -6 -23z m99 -15
c0 -21 -3 -29 -10 -22 -5 5 -7 19 -4 32 9 31 14 27 14 -10z m260 22 c0 -5 -4
-10 -10 -10 -5 0 -10 -5 -10 -11 0 -6 -7 -17 -15 -25 -22 -23 -20 6 3 34 18
23 32 28 32 12z m-460 -40 c0 -5 -4 -10 -10 -10 -5 0 -10 5 -10 10 0 6 5 10
10 10 6 0 10 -4 10 -10z m34 -72 c23 -45 20 -48 -9 -6 -14 20 -25 40 -25 43 0
14 20 -7 34 -37z m161 -37 c-6 -5 -25 10 -25 20 0 5 6 4 14 -3 8 -7 12 -15 11
-17z m-479 6 c5 -4 -25 -14 -70 -23 -11 -2 -22 -7 -25 -12 -3 -4 -18 -8 -33
-7 -31 0 -22 15 11 18 12 1 30 9 39 19 15 15 65 19 78 5z m-238 -87 c-2 -6
-11 -4 -23 5 -11 9 -15 14 -8 11 6 -4 15 -1 19 6 6 9 9 9 12 0 2 -7 2 -17 0
-22z m932 20 c0 -5 -4 -10 -9 -10 -6 0 -13 5 -16 10 -3 6 1 10 9 10 9 0 16 -4
16 -10z m-37 -31 c-9 -9 -12 -7 -10 9 1 14 5 18 11 12 7 -7 6 -14 -1 -21z
m-253 0 c0 -6 -4 -7 -10 -4 -5 3 -10 11 -10 16 0 6 5 7 10 4 6 -3 10 -11 10
-16z m-15 -29 l20 -25 -22 19 c-13 11 -23 24 -23 29 0 6 1 8 3 6 1 -2 11 -15
22 -29z m-1295 -10 c0 -5 -5 -10 -11 -10 -5 0 -8 -4 -4 -9 3 -5 2 -12 -3 -15
-4 -2 -9 -24 -10 -48 -1 -24 -7 -67 -13 -95 -9 -44 -17 -58 -52 -86 -49 -40
-106 -69 -118 -61 -5 3 -9 1 -9 -4 0 -5 -18 -17 -41 -27 -22 -10 -45 -27 -50
-37 -10 -19 -9 -19 22 -3 25 14 33 14 40 4 4 -7 6 -16 4 -20 -3 -3 7 -5 20 -3
71 7 -12 -26 -100 -41 -11 -2 -32 -8 -47 -14 -33 -13 -34 -7 -9 52 11 25 17
47 15 50 -3 3 26 22 63 42 128 71 208 181 212 291 1 15 11 23 39 31 51 14 52
14 52 3z m780 -10 c8 -5 11 -10 5 -10 -5 0 -17 5 -25 10 -8 5 -10 10 -5 10 6
0 17 -5 25 -10z m30 -43 c9 -3 4 -6 -11 -6 -15 -1 -29 6 -33 14 -4 12 -2 13
12 7 9 -5 24 -12 32 -15z m90 9 c0 -2 -7 -7 -16 -10 -8 -3 -12 -2 -9 4 6 10
25 14 25 6z m506 -18 c3 -4 -1 -5 -10 -4 -8 1 -18 5 -22 8 -3 4 1 5 10 4 8 -1
18 -5 22 -8z m-1303 -78 c-4 -4 -33 -24 -63 -45 -30 -22 -58 -44 -62 -50 -4
-5 -6 5 -5 22 2 26 6 33 24 33 22 0 83 30 83 41 0 3 7 6 15 6 9 0 12 -3 8 -7z
m-293 -74 c0 -2 -8 -10 -17 -17 -16 -13 -17 -12 -4 4 13 16 21 21 21 13z m306
-51 c-9 -14 -21 -25 -27 -25 -6 0 -8 -4 -5 -9 3 -5 -5 -16 -19 -25 -14 -9 -25
-23 -25 -31 0 -8 -9 -15 -20 -15 -11 0 -20 -4 -20 -8 0 -5 -10 -8 -22 -7 -13
1 -30 -1 -38 -5 -8 -4 -33 -10 -55 -13 -38 -6 -38 -6 -10 5 17 6 44 20 60 32
17 12 51 34 78 49 26 16 47 32 47 38 0 6 4 8 9 5 4 -3 19 6 31 19 29 31 39 25
16 -10z m-696 15 c0 -5 -2 -10 -4 -10 -3 0 -8 5 -11 10 -3 6 -1 10 4 10 6 0
11 -4 11 -10z m90 -132 c0 -12 -6 -9 -26 13 -19 22 -19 22 4 8 12 -8 22 -17
22 -21z m330 -32 c0 -2 -7 -7 -16 -10 -8 -3 -12 -2 -9 4 6 10 25 14 25 6z
m6125 -36 c-3 -5 -12 -10 -18 -10 -7 0 -6 4 3 10 19 12 23 12 15 0z m-7358
-229 c0 -11 -5 -18 -9 -15 -4 3 -5 11 -1 19 7 21 12 19 10 -4z m5723 -695 c0
-2 -12 -11 -27 -20 l-28 -17 24 20 c23 21 31 25 31 17z m-5210 -2579 c0 -5 -4
-5 -10 -2 -5 3 -10 14 -10 23 0 15 2 15 10 2 5 -8 10 -19 10 -23z"/>
</g>
</svg>
